<?xml version="1.0" encoding="UTF-8" standalone="no"?>
<!-- Generator: Adobe Illustrator 18.1.1, SVG Export Plug-In . SVG Version: 6.00 Build 0)  -->

<svg
   xmlns:dc="http://purl.org/dc/elements/1.1/"
   xmlns:cc="http://creativecommons.org/ns#"
   xmlns:rdf="http://www.w3.org/1999/02/22-rdf-syntax-ns#"
   xmlns:svg="http://www.w3.org/2000/svg"
   xmlns="http://www.w3.org/2000/svg"
   xmlns:sodipodi="http://sodipodi.sourceforge.net/DTD/sodipodi-0.dtd"
   xmlns:inkscape="http://www.inkscape.org/namespaces/inkscape"
   version="1.1"
   id="Capa_1"
   x="0px"
   y="0px"
   viewBox="0 0 128 127.80936"
   xml:space="preserve"
   inkscape:version="0.48.4 r9939"
   width="100%"
   height="100%"
   sodipodi:docname="logo.svg"
   inkscape:export-filename="/home/suenot/sites/generator-ext/dist/images/icon-128.png"
   inkscape:export-xdpi="90.134254"
   inkscape:export-ydpi="90.134254"><metadata
     id="metadata46"><rdf:RDF><cc:Work
         rdf:about=""><dc:format>image/svg+xml</dc:format><dc:type
           rdf:resource="http://purl.org/dc/dcmitype/StillImage" /><dc:title></dc:title></cc:Work></rdf:RDF></metadata><defs
     id="defs44" /><sodipodi:namedview
     pagecolor="#ffffff"
     bordercolor="#666666"
     borderopacity="1"
     objecttolerance="10"
     gridtolerance="10"
     guidetolerance="10"
     inkscape:pageopacity="0"
     inkscape:pageshadow="2"
     inkscape:window-width="1280"
     inkscape:window-height="751"
     id="namedview42"
     showgrid="false"
     fit-margin-top="0"
     fit-margin-left="0"
     fit-margin-right="0"
     fit-margin-bottom="0"
     inkscape:zoom="0.79310136"
     inkscape:cx="151.30519"
     inkscape:cy="148.562"
     inkscape:window-x="0"
     inkscape:window-y="25"
     inkscape:window-maximized="1"
     inkscape:current-layer="Capa_1" /><g
     id="g3"
     transform="matrix(0.43015641,0,0,0.43015641,1.9248447e-4,-0.09549472)"
     inkscape:export-filename="/home/suenot/sites/generator-ext/dist/images/icon-19.png"
     inkscape:export-xdpi="90"
     inkscape:export-ydpi="90"><g
       id="Layer_5_68_"><g
         id="g6"><path
           d="m 239.635,288.174 c 2.102,5.044 -0.65,9.171 -6.114,9.171 H 64.041 c -5.464,0 -8.216,-4.127 -6.114,-9.171 L 76.014,255.36 c 2.102,-5.044 8.292,-9.171 13.756,-9.171 h 118.023 c 5.464,0 11.654,4.127 13.756,9.171 l 18.086,32.814 z"
           id="path8"
           inkscape:connector-curvature="0" /><path
           d="m 290.868,46.453 c 0,0 -29.212,0 -38.949,0 -4.14,0 -2.585,-4.833 -2.585,-4.833 l 7.602,-27.564 C 259.034,6.447 254.293,0.222 246.401,0.222 H 163.715 133.848 51.162 c -7.893,0 -12.633,6.225 -10.535,13.834 l 7.602,27.564 c 0,0 1.554,4.833 -2.586,4.833 -9.737,0 -38.949,0 -38.949,0 -4.856,0 -7.717,3.814 -6.355,8.477 l 28.646,113.842 c 1.361,4.662 6.449,8.478 11.306,8.478 0,0 27.197,0 36.263,0 4.415,0 5.142,3.667 5.142,3.667 l 2.082,7.55 c 2.536,11.074 42.965,29.84 54.469,34.782 6.694,2.876 14.362,2.835 21.074,0 12.681,-5.356 50.351,-22.604 54.469,-34.782 l 2.082,-7.55 c 0,0 0.727,-3.667 5.142,-3.667 9.065,0 36.262,0 36.262,0 4.857,0 9.945,-3.815 11.307,-8.478 L 297.228,54.93 c 1.358,-4.663 -1.503,-8.477 -6.36,-8.477 z M 70.463,155.171 c -3.68,0 -14.717,0 -14.717,0 -4.857,0 -9.841,-3.843 -11.074,-8.541 L 31.642,77.071 c -1.233,-4.697 1.731,-8.541 6.588,-8.541 0,0 11.148,0 14.864,0 2.76,0 3.413,3.108 3.413,3.108 l 17.034,79.718 c 0,0 1.171,3.815 -3.078,3.815 z m 195.457,-78.1 -13.029,69.559 c -1.234,4.698 -6.217,8.541 -11.074,8.541 0,0 -11.037,0 -14.717,0 -4.248,0 -3.078,-3.814 -3.078,-3.814 l 17.034,-79.718 c 0,0 0.653,-3.108 3.413,-3.108 3.716,0 14.864,0 14.864,0 4.856,-0.001 7.821,3.843 6.587,8.54 z"
           id="path10"
           inkscape:connector-curvature="0" /></g></g></g><g
     id="g12"
     transform="translate(4.4857891e-4,-169.53564)" /><g
     id="g14"
     transform="translate(4.4857891e-4,-169.53564)" /><g
     id="g16"
     transform="translate(4.4857891e-4,-169.53564)" /><g
     id="g18"
     transform="translate(4.4857891e-4,-169.53564)" /><g
     id="g20"
     transform="translate(4.4857891e-4,-169.53564)" /><g
     id="g22"
     transform="translate(4.4857891e-4,-169.53564)" /><g
     id="g24"
     transform="translate(4.4857891e-4,-169.53564)" /><g
     id="g26"
     transform="translate(4.4857891e-4,-169.53564)" /><g
     id="g28"
     transform="translate(4.4857891e-4,-169.53564)" /><g
     id="g30"
     transform="translate(4.4857891e-4,-169.53564)" /><g
     id="g32"
     transform="translate(4.4857891e-4,-169.53564)" /><g
     id="g34"
     transform="translate(4.4857891e-4,-169.53564)" /><g
     id="g36"
     transform="translate(4.4857891e-4,-169.53564)" /><g
     id="g38"
     transform="translate(4.4857891e-4,-169.53564)" /><g
     id="g40"
     transform="translate(4.4857891e-4,-169.53564)" /></svg>